<?xml version="1.0" encoding="utf-8"?>
<!-- Generator: Adobe Illustrator 27.5.0, SVG Export Plug-In . SVG Version: 6.00 Build 0)  -->
<svg version="1.1" id="Calque_1" xmlns="http://www.w3.org/2000/svg" xmlns:xlink="http://www.w3.org/1999/xlink" x="0px" y="0px"
	 viewBox="0 0 40 40" style="enable-background:new 0 0 40 40;" xml:space="preserve">
<style type="text/css">
	.st0{fill:#141414;}
	.st1{fill:#DFB52E;}
</style>
<circle class="st0" cx="20" cy="19.9" r="19.8"/>
<g>
	<g>
		<polygon class="st1" points="11.5,10.6 11.5,9.9 4.5,9.9 10.6,20.4 11.4,20.4 5.7,10.6 		"/>
		<polygon class="st1" points="28.6,9.9 28.6,10.6 34.3,10.6 28.7,20.4 29.4,20.4 35.5,9.9 		"/>
	</g>
	<polygon class="st1" points="23.6,29.2 20,35.4 16.4,29.2 15.7,29.2 20,36.7 24.4,29.2 	"/>
</g>
<rect x="5.7" y="18.1" class="st0" width="28" height="4.6"/>
<g>
	<path class="st1" d="M4.4,26.7c0,0,1.8-1.4,4.5-3c2.7-1.6,4.8-4.9,4.9-4.6c0.1,0.3,0.2,2.3,0.2,2.3l2,4.6c0,0-3.7-4.2-3.7-2.8
		c0,1.4,0.5,3.6,0.5,3.6h-2.5l-1.2-1.2l0.5,1.2H8.8c0,0-0.2-1.1-0.6-1c-0.4,0.1-0.8,1-0.8,1H4.4z"/>
	<path class="st1" d="M14.4,19l5.5,7.6c0,0,2.4,0,2.2-0.6c-0.2-0.5-1.8-4.4-1.8-4.4s2.2,2.1,2.8,2.6c0.6,0.4,0.8,0.4,0.8,0.4
		S23,22.1,22,21.3c-0.9-0.7-1.2-3-1.2-3l1.4,1.1l-1.1-2.7l-0.2-4.9c0,0-0.6,0.8-1.8,1.3c-1.2,0.5-1.9,2.2-2.2,2.9
		C16.5,16.8,14.4,19,14.4,19z"/>
	<path class="st1" d="M22.5,14.6c0,0,1.2,3.4,2.3,5.6s5.2,6.5,5.2,6.5l1-2l-2-2.3L28,22.7l1.1-1.3l-1.6-1.6l-0.5-0.3l-4.6-6.2
		L22.5,14.6z"/>
	<polygon class="st1" points="30.3,21.6 33.4,26.4 35.6,26.7 34.3,23.6 33.6,24.7 30.9,21.3 	"/>
</g>
</svg>
